PathFileType	4	(X/Y/Z)	Kaydara																																																																																																																									
DataRate	CameraRate	NumFrames	NumMarkers	Units	OrigDataRate	OrigDataStartFrame	OrigNumFrames																																																																																																																					
30	30	7	41	mm	30	25	195																																																																																																																					
Frame#	Time	NABA_LFHD			NABA_RFHD			NABA_LBHD			NABA_RBHD			NABA_LFTShould			NABA_RFTShould			NABA_LRRShould			NABA_RRRShould			NABA_T10			NABA_STRN			NABA_TRUN			NABA_LSHO			NABA_LUPA			NABA_LELB			NABA_LFRM			NABA_LWRA			NABA_LWRB			NABA_LFIN			NABA_RSHO			NABA_RUPA			NABA_RELB			NABA_RFRM			NABA_RWRA			NABA_RWRB			NABA_RFIN			NABA_LFWT			NABA_RFWT			NABA_LBWT			NABA_RBWT			NABA_LTHI			NABA_LKNE			NABA_LSHN			NABA_LANK			NABA_LHEE			NABA_LTOE			NABA_RTHI			NABA_RKNE			NABA_RSHN			NABA_RANK			NABA_RHEE			NABA_RTOE		
		X1	Y1	Z1	X2	Y2	Z2	X3	Y3	Z3	X4	Y4	Z4	X5	Y5	Z5	X6	Y6	Z6	X7	Y7	Z7	X8	Y8	Z8	X9	Y9	Z9	X10	Y10	Z10	X11	Y11	Z11	X12	Y12	Z12	X13	Y13	Z13	X14	Y14	Z14	X15	Y15	Z15	X16	Y16	Z16	X17	Y17	Z17	X18	Y18	Z18	X19	Y19	Z19	X20	Y20	Z20	X21	Y21	Z21	X22	Y22	Z22	X23	Y23	Z23	X24	Y24	Z24	X25	Y25	Z25	X26	Y26	Z26	X27	Y27	Z27	X28	Y28	Z28	X29	Y29	Z29	X30	Y30	Z30	X31	Y31	Z31	X32	Y32	Z32	X33	Y33	Z33	X34	Y34	Z34	X35	Y35	Z35	X36	Y36	Z36	X37	Y37	Z37	X38	Y38	Z38	X39	Y39	Z39	X40	Y40	Z40	X41	Y41	Z41
																																																																																																																												
25	0.81	243.69398	1617.43912	-1907.64374	73.8166	1595.44464	-1880.31281	254.56467	1595.01617	-2031.99844	39.18826	1583.90488	-1974.99481	230.66298	1343.82294	-1935.81665	96.37987	1338.33588	-1929.2131	228.0827	1390.30853	-2060.22797	79.18698	1387.43332	-2043.93097	162.54841	1221.0614	-2110.92941	166.87243	1291.91895	-1880.35095	171.17098	1198.06152	-1824.80942	323.64109	1363.52036	-1990.64178	383.16547	1130.50453	-2015.14404	392.15118	1040.55649	-1986.82983	383.83137	964.51202	-2006.72684	331.63242	819.87984	-1924.90219	403.62335	820.92667	-1926.55121	381.97884	763.52402	-1880.98465	2.59599	1358.27332	-1972.11716	-48.53116	1153.46985	-2029.29413	-65.59316	1030.04295	-1979.65729	-65.95815	935.14328	-1968.48663	7.8638	816.31699	-1892.72949	-66.70873	802.64557	-1887.53571	-44.79266	766.60965	-1854.48685	295.49719	950.3289	-1919.43573	28.89233	949.10194	-1917.32788	243.33111	1016.74637	-2085.8255	76.18174	1030.67093	-2088.39691	296.72138	657.80563	-2066.14288	294.96231	505.15373	-2016.53015	245.57165	308.15983	-2005.87341	274.02737	160.30233	-2080.23972	216.52857	112.64708	-2134.85687	235.87034	80.74751	-1959.80759	28.41709	671.68907	-2067.4321	44.24691	504.32198	-1962.94632	54.26111	331.9355	-1995.83649	44.68448	143.32097	-2069.99725	89.8472	100.43039	-2140.71045	67.88264	82.45395	-1962.47391
26	0.843	243.44162	1617.23953	-1906.54022	73.59569	1595.01297	-1879.25797	254.39222	1595.16205	-2030.86685	38.96185	1583.73245	-1973.97125	230.7176	1343.51563	-1935.6134	96.29463	1337.86682	-1929.01764	227.99603	1390.17151	-2059.71725	79.18233	1387.22702	-2043.51318	162.64862	1220.98457	-2110.5365	166.86886	1291.60706	-1880.25482	171.25902	1197.77504	-1824.55185	323.51509	1363.98651	-1992.63428	383.06641	1130.23727	-2015.10818	392.16599	1040.34309	-1986.7482	383.93444	964.31732	-2006.59134	331.95114	819.69414	-1924.58588	403.97858	820.80208	-1926.39984	382.4754	763.37631	-1880.67886	2.54864	1357.90482	-1971.8541	-48.14403	1152.99934	-2029.19525	-65.1161	1029.49463	-1979.34326	-65.52801	934.7641	-1968.23639	8.44313	816.06567	-1892.11014	-66.04083	802.29446	-1887.11563	-44.29032	766.3623	-1853.88153	295.58163	950.29243	-1919.07623	28.90204	948.94173	-1917.09671	243.50452	1016.79131	-2085.43839	76.32297	1030.67596	-2088.07312	296.83535	657.81403	-2065.96237	295.04433	505.14912	-2016.40015	245.55508	308.1535	-2005.84991	274.06204	160.32545	-2080.10178	216.55357	112.64517	-2134.86526	235.86168	80.72671	-1959.77554	28.53611	671.70609	-2067.24945	44.41844	504.2482	-1963.02109	54.19275	331.88622	-1995.64178	44.70384	143.3107	-2069.97787	89.84726	100.42677	-2140.71335	67.88764	82.46332	-1962.46536
27	0.877	243.12689	1617.00211	-1905.13412	73.44953	1594.54697	-1878.09341	254.224	1595.38025	-2029.72107	38.79047	1583.62747	-1972.89688	230.75041	1343.26248	-1935.42496	96.42993	1337.50748	-1928.75397	228.01176	1390.1709	-2059.35715	79.19497	1387.06696	-2043.0838	162.71919	1220.98167	-2110.14465	166.94914	1291.30981	-1880.07492	171.3769	1197.49969	-1824.44122	323.77033	1363.71689	-1991.60004	383.0114	1130.23369	-2014.97025	392.14069	1040.30228	-1986.53397	383.90011	964.29283	-2006.43005	332.02198	819.76143	-1924.11438	404.05979	820.79071	-1926.19843	382.72903	763.37204	-1880.48721	2.58017	1357.57782	-1971.50467	-47.86737	1152.66617	-2028.96591	-64.96481	1029.26559	-1979.3129	-64.91721	934.26697	-1967.78122	9.18841	815.88951	-1891.58875	-65.4143	802.02614	-1886.56189	-43.50381	766.18042	-1853.3223	295.842	950.26909	-1918.74771	29.06049	948.89687	-1916.77017	243.64105	1016.82068	-2085.09369	76.41529	1030.73486	-2087.7243	296.94166	657.82448	-2065.77393	295.1091	505.11848	-2016.30173	245.59582	308.14871	-2005.79483	274.07475	160.34847	-2080.0531	216.55289	112.6629	-2134.81979	235.87601	80.73965	-1959.7757	28.64033	671.78009	-2067.08099	44.43799	504.24561	-1962.75528	54.34265	331.93756	-1995.76035	44.74566	143.32788	-2069.9585	89.83411	100.47846	-2140.69931	67.87401	82.46639	-1962.46078
28	0.91	242.96818	1616.90048	-1904.00177	73.3357	1594.09027	-1876.93329	254.04781	1595.54337	-2028.44254	38.64069	1583.46039	-1971.90338	230.76809	1342.97989	-1935.12039	96.76778	1337.5061	-1928.56674	228.00869	1390.23941	-2058.91388	79.17544	1386.99921	-2042.53098	162.81818	1221.08032	-2109.80057	166.99368	1290.98114	-1880.03952	171.51262	1197.12402	-1824.34509	323.73116	1363.28995	-1990.58716	382.97039	1130.25246	-2014.67987	392.07985	1040.33913	-1986.31561	383.80318	964.27681	-2006.129	331.93653	819.78806	-1923.92426	403.9336	820.84366	-1925.89386	382.50202	763.45146	-1880.12665	2.61058	1357.33719	-1971.04782	-47.7759	1152.43996	-2028.62595	-64.6366	1028.89076	-1978.80615	-64.59906	933.99696	-1967.42218	9.84394	815.7782	-1891.23596	-64.71847	801.82571	-1886.09558	-42.68056	765.96725	-1852.79449	296.01547	950.24025	-1918.51151	29.31398	948.94905	-1916.3736	243.75515	1016.89682	-2084.88083	76.55417	1030.81589	-2087.37839	297.03018	657.83188	-2065.63599	295.21816	505.13878	-2016.25641	245.69349	308.20013	-2005.72205	274.15325	160.3775	-2079.92355	216.55874	112.7687	-2134.82666	235.90054	80.74114	-1959.76822	28.71809	671.82205	-2066.92902	44.55388	504.27322	-1962.73865	54.36472	331.95374	-1995.73517	44.72887	143.40094	-2069.95453	89.8162	100.47773	-2140.68039	67.88264	82.45395	-1962.47391
29	0.943	242.76777	1616.73676	-1902.78748	73.169	1593.70132	-1875.7785	253.95533	1595.61844	-2027.28043	38.47361	1583.2605	-1970.86365	230.75132	1342.7034	-1934.70428	96.41581	1336.89224	-1928.07083	227.96585	1390.29724	-2058.34717	79.1494	1386.94397	-2041.9606	162.82164	1221.22528	-2109.48654	166.99894	1290.56213	-1879.87869	171.61285	1196.67854	-1824.19907	323.60535	1363.52448	-1990.72311	382.95479	1130.14252	-2014.41223	391.96323	1040.20821	-1986.06125	383.65807	964.10248	-2005.84259	331.48399	819.72054	-1923.43857	403.51986	820.69954	-1925.46707	381.95385	763.35846	-1879.59808	2.58015	1357.12311	-1970.50369	-47.69535	1152.14844	-2028.20251	-64.37817	1028.59024	-1978.37448	-64.24127	933.65845	-1966.98776	10.35367	815.616	-1890.9024	-64.08972	801.55357	-1885.64163	-42.00543	765.75439	-1852.33704	296.33587	950.22728	-1918.18497	29.43535	948.88214	-1916.203	243.8953	1016.85806	-2084.5842	76.7535	1030.82298	-2087.07977	297.18218	657.83607	-2065.54092	295.3297	505.10818	-2016.16135	245.72071	308.15641	-2005.70114	274.17896	160.38244	-2079.92172	216.56408	112.71928	-2134.82025	235.88137	80.72474	-1959.76639	28.84055	671.86989	-2066.83121	44.61047	504.22192	-1962.6889	54.24901	331.89968	-1995.49011	44.72786	143.39853	-2069.9678	89.81861	100.48667	-2140.69687	67.88407	82.45567	-1962.46078
30	0.977	242.5765	1616.52344	-1901.62445	73.07961	1593.23715	-1874.70367	253.80655	1595.73807	-2026.11023	38.31006	1583.12592	-1969.93393	230.69809	1342.45972	-1934.3187	96.42694	1336.61896	-1927.60025	227.85971	1390.31128	-2057.69379	79.12827	1386.88385	-2041.38443	162.85471	1221.30013	-2109.09958	166.99297	1290.09293	-1879.35364	171.82169	1196.23352	-1824.04022	323.19748	1363.81424	-1991.987	382.86327	1129.99542	-2014.10889	391.78391	1039.99763	-1985.80902	383.3691	963.86963	-2005.57053	330.89081	819.81712	-1922.90955	402.98569	820.50156	-1925.0885	381.32393	763.2637	-1879.12888	2.59706	1356.89285	-1969.96872	-47.64278	1151.88812	-2027.74582	-64.09773	1028.23158	-1977.94327	-63.91325	933.35915	-1966.65543	10.83592	815.37125	-1890.60333	-63.5867	801.23344	-1885.31128	-41.48551	765.46432	-1852.00287	296.60368	950.1577	-1918.1102	29.55235	948.86635	-1916.035	244.12146	1016.88057	-2084.38828	76.96644	1030.77362	-2086.87469	297.32817	657.81853	-2065.42511	295.42423	505.05875	-2016.05453	245.77723	308.15624	-2005.67596	274.16912	160.39904	-2080.0351	216.5967	112.74882	-2134.81598	235.90044	80.73371	-1959.76715	28.98887	671.91254	-2066.70303	44.77767	504.18091	-1962.57904	54.55729	331.9178	-1995.66574	44.76889	143.39912	-2069.9472	89.86496	100.51913	-2140.66422	67.90074	82.46424	-1962.46155
31	1.01	242.41756	1616.30981	-1900.54382	72.61275	1593.03391	-1873.8913	253.69968	1595.85739	-2025.06195	38.18229	1582.98264	-1968.99628	230.77271	1342.33551	-1933.82248	96.439	1336.38992	-1927.1962	227.82568	1390.401	-2057.13257	79.10674	1386.79901	-2040.73578	162.9071	1221.39603	-2108.76312	166.96007	1289.82986	-1879.55902	171.88776	1195.79208	-1823.84979	323.77048	1363.26004	-1988.68225	382.66823	1129.86084	-2013.84033	391.45676	1039.84703	-1985.57129	383.02998	963.74016	-2005.3569	330.16041	819.7361	-1922.77527	402.34695	820.35149	-1924.69208	380.5941	763.18161	-1878.73688	2.56478	1356.68976	-1969.44183	-47.51593	1151.63452	-2027.341	-63.82742	1027.96158	-1977.51083	-63.5727	933.09448	-1966.27518	11.14689	815.04044	-1890.46539	-63.20218	800.91171	-1885.08255	-41.06826	765.17494	-1851.79184	296.80889	950.14908	-1917.92725	29.66579	948.8221	-1915.88654	244.28974	1016.89232	-2084.15253	77.16297	1030.83092	-2086.67313	297.48877	657.79922	-2065.29877	295.53869	505.04269	-2016.00616	245.86773	308.12582	-2005.60837	274.18127	160.31485	-2080.11765	216.60389	112.7807	-2134.81049	235.89161	80.73419	-1959.77112	29.16061	671.92337	-2066.58035	44.84992	504.18549	-1962.53311	54.64842	331.9426	-1995.63309	44.79176	143.40022	-2069.96017	89.90891	100.52534	-2140.69489	67.89566	82.47141	-1962.46063
